G04 EAGLE Gerber RS-274X export*
G75*
%MOMM*%
%FSLAX34Y34*%
%LPD*%
%INSilkscreen Bottom*%
%IPPOS*%
%AMOC8*
5,1,8,0,0,1.08239X$1,22.5*%
G01*
%ADD10C,0.127000*%


D10*
X458280Y1169544D02*
X458198Y1169542D01*
X458117Y1169536D01*
X458036Y1169527D01*
X457955Y1169513D01*
X457876Y1169496D01*
X457797Y1169475D01*
X457719Y1169450D01*
X457643Y1169421D01*
X457568Y1169389D01*
X457494Y1169353D01*
X457423Y1169314D01*
X457353Y1169272D01*
X457285Y1169226D01*
X457220Y1169177D01*
X457157Y1169125D01*
X457097Y1169070D01*
X457039Y1169012D01*
X456984Y1168952D01*
X456932Y1168889D01*
X456883Y1168824D01*
X456837Y1168756D01*
X456795Y1168687D01*
X456756Y1168615D01*
X456720Y1168541D01*
X456688Y1168466D01*
X456659Y1168390D01*
X456634Y1168312D01*
X456613Y1168233D01*
X456596Y1168154D01*
X456582Y1168073D01*
X456573Y1167992D01*
X456567Y1167911D01*
X456565Y1167829D01*
X458280Y1169543D02*
X458372Y1169541D01*
X458464Y1169535D01*
X458556Y1169526D01*
X458648Y1169512D01*
X458738Y1169495D01*
X458828Y1169474D01*
X458917Y1169449D01*
X459005Y1169420D01*
X459092Y1169388D01*
X459177Y1169352D01*
X459260Y1169313D01*
X459342Y1169270D01*
X459422Y1169224D01*
X459500Y1169174D01*
X459576Y1169122D01*
X459649Y1169066D01*
X459720Y1169007D01*
X459789Y1168945D01*
X459855Y1168880D01*
X459918Y1168813D01*
X459978Y1168743D01*
X460036Y1168671D01*
X460090Y1168596D01*
X460141Y1168519D01*
X460189Y1168440D01*
X460233Y1168359D01*
X460274Y1168276D01*
X460312Y1168192D01*
X460346Y1168106D01*
X460376Y1168019D01*
X457137Y1166495D02*
X457078Y1166554D01*
X457022Y1166615D01*
X456969Y1166678D01*
X456918Y1166744D01*
X456871Y1166812D01*
X456827Y1166882D01*
X456786Y1166954D01*
X456748Y1167028D01*
X456714Y1167103D01*
X456683Y1167180D01*
X456656Y1167258D01*
X456632Y1167338D01*
X456611Y1167418D01*
X456595Y1167499D01*
X456582Y1167581D01*
X456572Y1167663D01*
X456567Y1167746D01*
X456565Y1167829D01*
X457137Y1166495D02*
X460375Y1162685D01*
X456565Y1162685D01*
X458470Y1144143D02*
X460375Y1142619D01*
X458470Y1144143D02*
X458470Y1137285D01*
X460375Y1137285D02*
X456565Y1137285D01*
X1063371Y1169543D02*
X1064895Y1164209D01*
X1061085Y1164209D01*
X1062228Y1165733D02*
X1062228Y1162685D01*
X1057580Y1166495D02*
X1055294Y1166495D01*
X1055217Y1166493D01*
X1055140Y1166487D01*
X1055063Y1166477D01*
X1054987Y1166464D01*
X1054912Y1166446D01*
X1054838Y1166425D01*
X1054765Y1166400D01*
X1054693Y1166371D01*
X1054623Y1166339D01*
X1054554Y1166304D01*
X1054488Y1166264D01*
X1054423Y1166222D01*
X1054361Y1166176D01*
X1054301Y1166127D01*
X1054244Y1166076D01*
X1054189Y1166021D01*
X1054138Y1165964D01*
X1054089Y1165904D01*
X1054043Y1165842D01*
X1054001Y1165777D01*
X1053961Y1165711D01*
X1053926Y1165642D01*
X1053894Y1165572D01*
X1053865Y1165500D01*
X1053840Y1165427D01*
X1053819Y1165353D01*
X1053801Y1165278D01*
X1053788Y1165202D01*
X1053778Y1165125D01*
X1053772Y1165048D01*
X1053770Y1164971D01*
X1053770Y1164590D01*
X1053772Y1164505D01*
X1053778Y1164419D01*
X1053787Y1164334D01*
X1053801Y1164250D01*
X1053818Y1164166D01*
X1053839Y1164083D01*
X1053863Y1164001D01*
X1053891Y1163921D01*
X1053923Y1163841D01*
X1053959Y1163763D01*
X1053997Y1163687D01*
X1054040Y1163613D01*
X1054085Y1163541D01*
X1054134Y1163470D01*
X1054186Y1163402D01*
X1054240Y1163337D01*
X1054298Y1163274D01*
X1054359Y1163213D01*
X1054422Y1163155D01*
X1054487Y1163101D01*
X1054555Y1163049D01*
X1054626Y1163000D01*
X1054698Y1162955D01*
X1054772Y1162912D01*
X1054848Y1162874D01*
X1054926Y1162838D01*
X1055006Y1162806D01*
X1055086Y1162778D01*
X1055168Y1162754D01*
X1055251Y1162733D01*
X1055335Y1162716D01*
X1055419Y1162702D01*
X1055504Y1162693D01*
X1055590Y1162687D01*
X1055675Y1162685D01*
X1055760Y1162687D01*
X1055846Y1162693D01*
X1055931Y1162702D01*
X1056015Y1162716D01*
X1056099Y1162733D01*
X1056182Y1162754D01*
X1056264Y1162778D01*
X1056344Y1162806D01*
X1056424Y1162838D01*
X1056502Y1162874D01*
X1056578Y1162912D01*
X1056652Y1162955D01*
X1056724Y1163000D01*
X1056795Y1163049D01*
X1056863Y1163101D01*
X1056928Y1163155D01*
X1056991Y1163213D01*
X1057052Y1163274D01*
X1057110Y1163337D01*
X1057164Y1163402D01*
X1057216Y1163470D01*
X1057265Y1163541D01*
X1057310Y1163613D01*
X1057353Y1163687D01*
X1057391Y1163763D01*
X1057427Y1163841D01*
X1057459Y1163921D01*
X1057487Y1164001D01*
X1057511Y1164083D01*
X1057532Y1164166D01*
X1057549Y1164250D01*
X1057563Y1164334D01*
X1057572Y1164419D01*
X1057578Y1164505D01*
X1057580Y1164590D01*
X1057580Y1166495D01*
X1057578Y1166604D01*
X1057572Y1166712D01*
X1057563Y1166821D01*
X1057549Y1166929D01*
X1057532Y1167036D01*
X1057510Y1167143D01*
X1057485Y1167249D01*
X1057457Y1167354D01*
X1057424Y1167458D01*
X1057388Y1167560D01*
X1057348Y1167661D01*
X1057305Y1167761D01*
X1057258Y1167859D01*
X1057207Y1167956D01*
X1057153Y1168050D01*
X1057096Y1168143D01*
X1057036Y1168233D01*
X1056972Y1168322D01*
X1056905Y1168408D01*
X1056836Y1168491D01*
X1056763Y1168572D01*
X1056687Y1168650D01*
X1056609Y1168726D01*
X1056528Y1168799D01*
X1056445Y1168868D01*
X1056359Y1168935D01*
X1056270Y1168999D01*
X1056180Y1169059D01*
X1056087Y1169116D01*
X1055993Y1169170D01*
X1055896Y1169221D01*
X1055798Y1169268D01*
X1055698Y1169311D01*
X1055597Y1169351D01*
X1055495Y1169387D01*
X1055391Y1169420D01*
X1055286Y1169448D01*
X1055180Y1169473D01*
X1055073Y1169495D01*
X1054966Y1169512D01*
X1054858Y1169526D01*
X1054749Y1169535D01*
X1054641Y1169541D01*
X1054532Y1169543D01*
X1063371Y1144143D02*
X1064895Y1138809D01*
X1061085Y1138809D01*
X1062228Y1140333D02*
X1062228Y1137285D01*
X1057580Y1137285D02*
X1055294Y1137285D01*
X1055217Y1137287D01*
X1055140Y1137293D01*
X1055063Y1137303D01*
X1054987Y1137316D01*
X1054912Y1137334D01*
X1054838Y1137355D01*
X1054765Y1137380D01*
X1054693Y1137409D01*
X1054623Y1137441D01*
X1054554Y1137476D01*
X1054488Y1137516D01*
X1054423Y1137558D01*
X1054361Y1137604D01*
X1054301Y1137653D01*
X1054244Y1137704D01*
X1054189Y1137759D01*
X1054138Y1137816D01*
X1054089Y1137876D01*
X1054043Y1137938D01*
X1054001Y1138003D01*
X1053961Y1138069D01*
X1053926Y1138138D01*
X1053894Y1138208D01*
X1053865Y1138280D01*
X1053840Y1138353D01*
X1053819Y1138427D01*
X1053801Y1138502D01*
X1053788Y1138578D01*
X1053778Y1138655D01*
X1053772Y1138732D01*
X1053770Y1138809D01*
X1053770Y1139571D01*
X1053772Y1139648D01*
X1053778Y1139725D01*
X1053788Y1139802D01*
X1053801Y1139878D01*
X1053819Y1139953D01*
X1053840Y1140027D01*
X1053865Y1140100D01*
X1053894Y1140172D01*
X1053926Y1140242D01*
X1053961Y1140311D01*
X1054001Y1140377D01*
X1054043Y1140442D01*
X1054089Y1140504D01*
X1054138Y1140564D01*
X1054189Y1140621D01*
X1054244Y1140676D01*
X1054301Y1140727D01*
X1054361Y1140776D01*
X1054423Y1140822D01*
X1054488Y1140864D01*
X1054554Y1140904D01*
X1054623Y1140939D01*
X1054693Y1140971D01*
X1054765Y1141000D01*
X1054838Y1141025D01*
X1054912Y1141046D01*
X1054987Y1141064D01*
X1055063Y1141077D01*
X1055140Y1141087D01*
X1055217Y1141093D01*
X1055294Y1141095D01*
X1057580Y1141095D01*
X1057580Y1144143D01*
X1053770Y1144143D01*
X458280Y686944D02*
X458198Y686942D01*
X458117Y686936D01*
X458036Y686927D01*
X457955Y686913D01*
X457876Y686896D01*
X457797Y686875D01*
X457719Y686850D01*
X457643Y686821D01*
X457568Y686789D01*
X457494Y686753D01*
X457423Y686714D01*
X457353Y686672D01*
X457285Y686626D01*
X457220Y686577D01*
X457157Y686525D01*
X457097Y686470D01*
X457039Y686412D01*
X456984Y686352D01*
X456932Y686289D01*
X456883Y686224D01*
X456837Y686156D01*
X456795Y686087D01*
X456756Y686015D01*
X456720Y685941D01*
X456688Y685866D01*
X456659Y685790D01*
X456634Y685712D01*
X456613Y685633D01*
X456596Y685554D01*
X456582Y685473D01*
X456573Y685392D01*
X456567Y685311D01*
X456565Y685229D01*
X458280Y686943D02*
X458372Y686941D01*
X458464Y686935D01*
X458556Y686926D01*
X458648Y686912D01*
X458738Y686895D01*
X458828Y686874D01*
X458917Y686849D01*
X459005Y686820D01*
X459092Y686788D01*
X459177Y686752D01*
X459260Y686713D01*
X459342Y686670D01*
X459422Y686624D01*
X459500Y686574D01*
X459576Y686522D01*
X459649Y686466D01*
X459720Y686407D01*
X459789Y686345D01*
X459855Y686280D01*
X459918Y686213D01*
X459978Y686143D01*
X460036Y686071D01*
X460090Y685996D01*
X460141Y685919D01*
X460189Y685840D01*
X460233Y685759D01*
X460274Y685676D01*
X460312Y685592D01*
X460346Y685506D01*
X460376Y685419D01*
X457137Y683895D02*
X457078Y683954D01*
X457022Y684015D01*
X456969Y684078D01*
X456918Y684144D01*
X456871Y684212D01*
X456827Y684282D01*
X456786Y684354D01*
X456748Y684428D01*
X456714Y684503D01*
X456683Y684580D01*
X456656Y684658D01*
X456632Y684738D01*
X456611Y684818D01*
X456595Y684899D01*
X456582Y684981D01*
X456572Y685063D01*
X456567Y685146D01*
X456565Y685229D01*
X457137Y683895D02*
X460375Y680085D01*
X456565Y680085D01*
X458470Y661543D02*
X460375Y660019D01*
X458470Y661543D02*
X458470Y654685D01*
X460375Y654685D02*
X456565Y654685D01*
X1063371Y686943D02*
X1064895Y681609D01*
X1061085Y681609D01*
X1062228Y683133D02*
X1062228Y680085D01*
X1057580Y683895D02*
X1055294Y683895D01*
X1055217Y683893D01*
X1055140Y683887D01*
X1055063Y683877D01*
X1054987Y683864D01*
X1054912Y683846D01*
X1054838Y683825D01*
X1054765Y683800D01*
X1054693Y683771D01*
X1054623Y683739D01*
X1054554Y683704D01*
X1054488Y683664D01*
X1054423Y683622D01*
X1054361Y683576D01*
X1054301Y683527D01*
X1054244Y683476D01*
X1054189Y683421D01*
X1054138Y683364D01*
X1054089Y683304D01*
X1054043Y683242D01*
X1054001Y683177D01*
X1053961Y683111D01*
X1053926Y683042D01*
X1053894Y682972D01*
X1053865Y682900D01*
X1053840Y682827D01*
X1053819Y682753D01*
X1053801Y682678D01*
X1053788Y682602D01*
X1053778Y682525D01*
X1053772Y682448D01*
X1053770Y682371D01*
X1053770Y681990D01*
X1053772Y681905D01*
X1053778Y681819D01*
X1053787Y681734D01*
X1053801Y681650D01*
X1053818Y681566D01*
X1053839Y681483D01*
X1053863Y681401D01*
X1053891Y681321D01*
X1053923Y681241D01*
X1053959Y681163D01*
X1053997Y681087D01*
X1054040Y681013D01*
X1054085Y680941D01*
X1054134Y680870D01*
X1054186Y680802D01*
X1054240Y680737D01*
X1054298Y680674D01*
X1054359Y680613D01*
X1054422Y680555D01*
X1054487Y680501D01*
X1054555Y680449D01*
X1054626Y680400D01*
X1054698Y680355D01*
X1054772Y680312D01*
X1054848Y680274D01*
X1054926Y680238D01*
X1055006Y680206D01*
X1055086Y680178D01*
X1055168Y680154D01*
X1055251Y680133D01*
X1055335Y680116D01*
X1055419Y680102D01*
X1055504Y680093D01*
X1055590Y680087D01*
X1055675Y680085D01*
X1055760Y680087D01*
X1055846Y680093D01*
X1055931Y680102D01*
X1056015Y680116D01*
X1056099Y680133D01*
X1056182Y680154D01*
X1056264Y680178D01*
X1056344Y680206D01*
X1056424Y680238D01*
X1056502Y680274D01*
X1056578Y680312D01*
X1056652Y680355D01*
X1056724Y680400D01*
X1056795Y680449D01*
X1056863Y680501D01*
X1056928Y680555D01*
X1056991Y680613D01*
X1057052Y680674D01*
X1057110Y680737D01*
X1057164Y680802D01*
X1057216Y680870D01*
X1057265Y680941D01*
X1057310Y681013D01*
X1057353Y681087D01*
X1057391Y681163D01*
X1057427Y681241D01*
X1057459Y681321D01*
X1057487Y681401D01*
X1057511Y681483D01*
X1057532Y681566D01*
X1057549Y681650D01*
X1057563Y681734D01*
X1057572Y681819D01*
X1057578Y681905D01*
X1057580Y681990D01*
X1057580Y683895D01*
X1057578Y684004D01*
X1057572Y684112D01*
X1057563Y684221D01*
X1057549Y684329D01*
X1057532Y684436D01*
X1057510Y684543D01*
X1057485Y684649D01*
X1057457Y684754D01*
X1057424Y684858D01*
X1057388Y684960D01*
X1057348Y685061D01*
X1057305Y685161D01*
X1057258Y685259D01*
X1057207Y685356D01*
X1057153Y685450D01*
X1057096Y685543D01*
X1057036Y685633D01*
X1056972Y685722D01*
X1056905Y685808D01*
X1056836Y685891D01*
X1056763Y685972D01*
X1056687Y686050D01*
X1056609Y686126D01*
X1056528Y686199D01*
X1056445Y686268D01*
X1056359Y686335D01*
X1056270Y686399D01*
X1056180Y686459D01*
X1056087Y686516D01*
X1055993Y686570D01*
X1055896Y686621D01*
X1055798Y686668D01*
X1055698Y686711D01*
X1055597Y686751D01*
X1055495Y686787D01*
X1055391Y686820D01*
X1055286Y686848D01*
X1055180Y686873D01*
X1055073Y686895D01*
X1054966Y686912D01*
X1054858Y686926D01*
X1054749Y686935D01*
X1054641Y686941D01*
X1054532Y686943D01*
X1063371Y661543D02*
X1064895Y656209D01*
X1061085Y656209D01*
X1062228Y657733D02*
X1062228Y654685D01*
X1057580Y654685D02*
X1055294Y654685D01*
X1055217Y654687D01*
X1055140Y654693D01*
X1055063Y654703D01*
X1054987Y654716D01*
X1054912Y654734D01*
X1054838Y654755D01*
X1054765Y654780D01*
X1054693Y654809D01*
X1054623Y654841D01*
X1054554Y654876D01*
X1054488Y654916D01*
X1054423Y654958D01*
X1054361Y655004D01*
X1054301Y655053D01*
X1054244Y655104D01*
X1054189Y655159D01*
X1054138Y655216D01*
X1054089Y655276D01*
X1054043Y655338D01*
X1054001Y655403D01*
X1053961Y655469D01*
X1053926Y655538D01*
X1053894Y655608D01*
X1053865Y655680D01*
X1053840Y655753D01*
X1053819Y655827D01*
X1053801Y655902D01*
X1053788Y655978D01*
X1053778Y656055D01*
X1053772Y656132D01*
X1053770Y656209D01*
X1053770Y656971D01*
X1053772Y657048D01*
X1053778Y657125D01*
X1053788Y657202D01*
X1053801Y657278D01*
X1053819Y657353D01*
X1053840Y657427D01*
X1053865Y657500D01*
X1053894Y657572D01*
X1053926Y657642D01*
X1053961Y657711D01*
X1054001Y657777D01*
X1054043Y657842D01*
X1054089Y657904D01*
X1054138Y657964D01*
X1054189Y658021D01*
X1054244Y658076D01*
X1054301Y658127D01*
X1054361Y658176D01*
X1054423Y658222D01*
X1054488Y658264D01*
X1054554Y658304D01*
X1054623Y658339D01*
X1054693Y658371D01*
X1054765Y658400D01*
X1054838Y658425D01*
X1054912Y658446D01*
X1054987Y658464D01*
X1055063Y658477D01*
X1055140Y658487D01*
X1055217Y658493D01*
X1055294Y658495D01*
X1057580Y658495D01*
X1057580Y661543D01*
X1053770Y661543D01*
M02*
