G04 EAGLE Gerber RS-274X export*
G75*
%MOMM*%
%FSLAX34Y34*%
%LPD*%
%INSoldermask Bottom*%
%IPPOS*%
%AMOC8*
5,1,8,0,0,1.08239X$1,22.5*%
G01*
%ADD10R,1.676400X1.676400*%
%ADD11P,1.814519X8X22.500000*%
%ADD12R,1.057200X1.057200*%
%ADD13C,2.112400*%
%ADD14C,1.272400*%
%ADD15C,4.597400*%


D10*
X476250Y1136650D03*
D11*
X476250Y1162050D03*
X501650Y1136650D03*
X501650Y1162050D03*
X527050Y1136650D03*
X527050Y1162050D03*
X552450Y1136650D03*
X552450Y1162050D03*
X577850Y1136650D03*
X577850Y1162050D03*
X603250Y1136650D03*
X603250Y1162050D03*
X628650Y1136650D03*
X628650Y1162050D03*
X654050Y1136650D03*
X654050Y1162050D03*
X679450Y1136650D03*
X679450Y1162050D03*
X704850Y1136650D03*
X704850Y1162050D03*
X730250Y1136650D03*
X730250Y1162050D03*
X755650Y1136650D03*
X755650Y1162050D03*
X781050Y1136650D03*
X781050Y1162050D03*
X806450Y1136650D03*
X806450Y1162050D03*
X831850Y1136650D03*
X831850Y1162050D03*
X857250Y1136650D03*
X857250Y1162050D03*
X882650Y1136650D03*
X882650Y1162050D03*
X908050Y1136650D03*
X908050Y1162050D03*
X933450Y1136650D03*
X933450Y1162050D03*
X958850Y1136650D03*
X958850Y1162050D03*
X984250Y1136650D03*
X984250Y1162050D03*
X1009650Y1136650D03*
X1009650Y1162050D03*
X1035050Y1136650D03*
X1035050Y1162050D03*
D10*
X476250Y654050D03*
D11*
X476250Y679450D03*
X501650Y654050D03*
X501650Y679450D03*
X527050Y654050D03*
X527050Y679450D03*
X552450Y654050D03*
X552450Y679450D03*
X577850Y654050D03*
X577850Y679450D03*
X603250Y654050D03*
X603250Y679450D03*
X628650Y654050D03*
X628650Y679450D03*
X654050Y654050D03*
X654050Y679450D03*
X679450Y654050D03*
X679450Y679450D03*
X704850Y654050D03*
X704850Y679450D03*
X730250Y654050D03*
X730250Y679450D03*
X755650Y654050D03*
X755650Y679450D03*
X781050Y654050D03*
X781050Y679450D03*
X806450Y654050D03*
X806450Y679450D03*
X831850Y654050D03*
X831850Y679450D03*
X857250Y654050D03*
X857250Y679450D03*
X882650Y654050D03*
X882650Y679450D03*
X908050Y654050D03*
X908050Y679450D03*
X933450Y654050D03*
X933450Y679450D03*
X958850Y654050D03*
X958850Y679450D03*
X984250Y654050D03*
X984250Y679450D03*
X1009650Y654050D03*
X1009650Y679450D03*
X1035050Y654050D03*
X1035050Y679450D03*
D12*
X330200Y1054100D03*
X1117600Y1003300D03*
X1117600Y800100D03*
X1181100Y165100D03*
X1181100Y25400D03*
D13*
X595900Y431400D03*
X595900Y381400D03*
X470900Y381400D03*
X470900Y431400D03*
X773700Y431400D03*
X773700Y381400D03*
X648700Y381400D03*
X648700Y431400D03*
D14*
X228600Y438900D03*
X228600Y373900D03*
D15*
X1181100Y342900D03*
X101600Y342900D03*
X50800Y50800D03*
X1244600Y50800D03*
X50800Y1168400D03*
X1244600Y1168400D03*
M02*
